<mxfile host="app.diagrams.net" modified="2022-02-17T17:43:49.457Z" agent="5.0 (Windows NT 10.0; Win64; x64) AppleWebKit/537.36 (KHTML, like Gecko) Chrome/98.0.4758.102 Safari/537.36" etag="LzGmMp2da8gj2vgJlK4u" version="16.5.6" type="github">
  <diagram id="JSSCa7bkJR9PmikTlj4o" name="Page-1">
    <mxGraphModel dx="2333" dy="1799" grid="1" gridSize="10" guides="1" tooltips="1" connect="1" arrows="1" fold="1" page="1" pageScale="1" pageWidth="850" pageHeight="1100" math="0" shadow="0">
      <root>
        <mxCell id="0" />
        <mxCell id="1" parent="0" />
        <mxCell id="V4ygMix9neK_rHeA2cn2-54" value="" style="endArrow=none;dashed=1;html=1;rounded=0;fontColor=#000000;startArrow=none;" parent="1" edge="1">
          <mxGeometry width="50" height="50" relative="1" as="geometry">
            <mxPoint x="487" y="890" as="sourcePoint" />
            <mxPoint x="487" y="-190" as="targetPoint" />
          </mxGeometry>
        </mxCell>
        <mxCell id="V4ygMix9neK_rHeA2cn2-47" value="" style="endArrow=none;html=1;rounded=0;fontColor=#99FF99;exitX=1;exitY=0.5;exitDx=0;exitDy=0;entryX=0;entryY=0.5;entryDx=0;entryDy=0;" parent="1" source="duze3X__lLn2EJtRwXXi-15" target="V4ygMix9neK_rHeA2cn2-45" edge="1">
          <mxGeometry width="50" height="50" relative="1" as="geometry">
            <mxPoint x="820" y="520" as="sourcePoint" />
            <mxPoint x="1170" y="360" as="targetPoint" />
          </mxGeometry>
        </mxCell>
        <mxCell id="2QfLTyrHY2M2lkCo5Ux--1" value="Internet Host&lt;br&gt;External IP: 10.50.21.246&lt;br&gt;Internal IP: 10.10.0.40" style="rounded=0;whiteSpace=wrap;html=1;fillColor=#dae8fc;strokeColor=#6c8ebf;" parent="1" vertex="1">
          <mxGeometry x="-120" y="195" width="190" height="60" as="geometry" />
        </mxCell>
        <mxCell id="2QfLTyrHY2M2lkCo5Ux--8" value="NET-SSH-01:&lt;br&gt;External: 10.50.25.34&lt;br&gt;Internal:&amp;nbsp;192.168.0.10&lt;br&gt;Open Ports: 22, 23, 80, 2401, 2402, 9050" style="rounded=0;whiteSpace=wrap;html=1;fillColor=#f8cecc;strokeColor=#b85450;" parent="1" vertex="1">
          <mxGeometry x="640" y="155" width="190" height="140" as="geometry" />
        </mxCell>
        <mxCell id="duze3X__lLn2EJtRwXXi-10" style="edgeStyle=orthogonalEdgeStyle;rounded=0;orthogonalLoop=1;jettySize=auto;html=1;exitX=0;exitY=0.5;exitDx=0;exitDy=0;entryX=1;entryY=0.25;entryDx=0;entryDy=0;" parent="1" source="duze3X__lLn2EJtRwXXi-2" target="duze3X__lLn2EJtRwXXi-9" edge="1">
          <mxGeometry relative="1" as="geometry" />
        </mxCell>
        <mxCell id="duze3X__lLn2EJtRwXXi-2" value="from telnet SSH-01: ssh student@10.50.21.246 -R 31101:localhost:22 -NT" style="shape=process;whiteSpace=wrap;html=1;backgroundOutline=1;align=left;" parent="1" vertex="1">
          <mxGeometry x="340" y="195" width="250" height="60" as="geometry" />
        </mxCell>
        <mxCell id="duze3X__lLn2EJtRwXXi-6" style="edgeStyle=orthogonalEdgeStyle;rounded=0;orthogonalLoop=1;jettySize=auto;html=1;exitX=0;exitY=0.25;exitDx=0;exitDy=0;entryX=1;entryY=0.5;entryDx=0;entryDy=0;" parent="1" source="duze3X__lLn2EJtRwXXi-5" target="duze3X__lLn2EJtRwXXi-2" edge="1">
          <mxGeometry relative="1" as="geometry" />
        </mxCell>
        <mxCell id="duze3X__lLn2EJtRwXXi-5" value="22" style="whiteSpace=wrap;html=1;aspect=fixed;fillColor=#ffe6cc;strokeColor=#d79b00;" parent="1" vertex="1">
          <mxGeometry x="630" y="273" width="40" height="40" as="geometry" />
        </mxCell>
        <mxCell id="V4ygMix9neK_rHeA2cn2-27" style="edgeStyle=orthogonalEdgeStyle;rounded=0;orthogonalLoop=1;jettySize=auto;html=1;exitX=1;exitY=0.5;exitDx=0;exitDy=0;entryX=0;entryY=0.25;entryDx=0;entryDy=0;" parent="1" source="duze3X__lLn2EJtRwXXi-9" target="V4ygMix9neK_rHeA2cn2-17" edge="1">
          <mxGeometry relative="1" as="geometry" />
        </mxCell>
        <mxCell id="duze3X__lLn2EJtRwXXi-9" value="31101" style="whiteSpace=wrap;html=1;aspect=fixed;fillColor=#ffe6cc;strokeColor=#d79b00;" parent="1" vertex="1">
          <mxGeometry x="60" y="175" width="40" height="40" as="geometry" />
        </mxCell>
        <mxCell id="duze3X__lLn2EJtRwXXi-15" value="NET-SSH-02:&lt;br&gt;Internal:&amp;nbsp;192.168.0.20&lt;br&gt;Open Ports: 22, 80, 3333 (ssh)" style="rounded=0;whiteSpace=wrap;html=1;fillColor=#f8cecc;strokeColor=#b85450;" parent="1" vertex="1">
          <mxGeometry x="640" y="330" width="190" height="60" as="geometry" />
        </mxCell>
        <mxCell id="duze3X__lLn2EJtRwXXi-16" value="NET-SSH-03:&lt;br&gt;Internal:&amp;nbsp;192.168.0.30&lt;br&gt;Open Ports: 80, 4444" style="rounded=0;whiteSpace=wrap;html=1;fillColor=#f8cecc;strokeColor=#b85450;" parent="1" vertex="1">
          <mxGeometry x="640" y="431" width="190" height="60" as="geometry" />
        </mxCell>
        <mxCell id="duze3X__lLn2EJtRwXXi-17" value="NET-SSH-04:&lt;br&gt;Internal:&amp;nbsp;192.168.0.40&lt;br&gt;Open Ports: 80" style="rounded=0;whiteSpace=wrap;html=1;fillColor=#f8cecc;strokeColor=#b85450;" parent="1" vertex="1">
          <mxGeometry x="637.5" y="529" width="190" height="60" as="geometry" />
        </mxCell>
        <mxCell id="mYg_Y59IcBYT0eOCHOQk-1" value="&lt;div style=&quot;text-align: left&quot;&gt;&lt;span style=&quot;color: rgb(0 , 0 , 0)&quot;&gt;telnet into NET-SSH-01&amp;nbsp;&lt;/span&gt;&lt;/div&gt;&lt;div style=&quot;text-align: left&quot;&gt;&lt;span style=&quot;color: rgb(0 , 0 , 0)&quot;&gt;ifconfig (private IP)&lt;/span&gt;&lt;/div&gt;&lt;div style=&quot;text-align: left&quot;&gt;&lt;span style=&quot;color: rgb(0 , 0 , 0)&quot;&gt;netstat -plnt (what&#39;s open)&lt;/span&gt;&lt;/div&gt;" style="shape=step;perimeter=stepPerimeter;whiteSpace=wrap;html=1;fixedSize=1;align=center;fillColor=#f5f5f5;fontColor=#333333;strokeColor=#666666;" parent="1" vertex="1">
          <mxGeometry x="770" y="130" width="275" height="50" as="geometry" />
        </mxCell>
        <mxCell id="duze3X__lLn2EJtRwXXi-3" value="1" style="ellipse;whiteSpace=wrap;html=1;aspect=fixed;fillColor=#d5e8d4;strokeColor=#82b366;" parent="1" vertex="1">
          <mxGeometry x="790" y="110" width="30" height="30" as="geometry" />
        </mxCell>
        <mxCell id="duze3X__lLn2EJtRwXXi-19" value="2" style="ellipse;whiteSpace=wrap;html=1;aspect=fixed;fillColor=#d5e8d4;strokeColor=#82b366;" parent="1" vertex="1">
          <mxGeometry x="330" y="180" width="30" height="30" as="geometry" />
        </mxCell>
        <mxCell id="duze3X__lLn2EJtRwXXi-23" value="Problems:" style="text;html=1;align=center;verticalAlign=middle;resizable=0;points=[];autosize=1;strokeColor=none;fillColor=none;" parent="1" vertex="1">
          <mxGeometry x="-290" y="60" width="70" height="20" as="geometry" />
        </mxCell>
        <mxCell id="duze3X__lLn2EJtRwXXi-24" value="Hint from .20:&amp;nbsp;&lt;i&gt;&lt;span style=&quot;font-size: 9pt ; line-height: 107%&quot;&gt;SSH is using an alternate port &lt;br&gt;above the well known ports. Use Banner Grabbing &lt;br&gt;to figure it out so you pivot to the next machine &lt;br&gt;that only this one has access to&lt;/span&gt;&lt;/i&gt;" style="text;html=1;align=left;verticalAlign=middle;resizable=0;points=[];autosize=1;strokeColor=none;fillColor=#FFFFFF;" parent="1" vertex="1">
          <mxGeometry x="850" y="331" width="280" height="60" as="geometry" />
        </mxCell>
        <mxCell id="duze3X__lLn2EJtRwXXi-25" value="Hint from .30: &lt;i&gt;The flag on this machine is on a &lt;br&gt;non-well known TCP port following a &lt;br&gt;similar scheme as net-ssh-02 &lt;br&gt;ports but higher. You must connect to it somehow&amp;nbsp;&lt;/i&gt;&amp;nbsp;" style="text;html=1;align=left;verticalAlign=middle;resizable=0;points=[];autosize=1;strokeColor=none;fillColor=none;" parent="1" vertex="1">
          <mxGeometry x="850" y="432" width="280" height="60" as="geometry" />
        </mxCell>
        <mxCell id="duze3X__lLn2EJtRwXXi-27" value="&lt;div&gt;Hint from .40: &lt;i&gt;The machine has access to&amp;nbsp;&lt;/i&gt;&lt;/div&gt;&lt;div&gt;&lt;i&gt;the 172.16.0.0/24 network. You will have to find&amp;nbsp;&lt;/i&gt;&lt;/div&gt;&lt;div&gt;&lt;i&gt;the alternate sshd port on the net-ssh-02 to progress further&lt;/i&gt;&lt;/div&gt;&lt;div&gt;Flag: &lt;i&gt;Goodbye&lt;/i&gt;&lt;/div&gt;&lt;div&gt;&lt;i&gt;my friend, you messed up again&lt;/i&gt;&lt;/div&gt;" style="text;html=1;align=left;verticalAlign=middle;resizable=0;points=[];autosize=1;strokeColor=none;fillColor=none;" parent="1" vertex="1">
          <mxGeometry x="847.5" y="520" width="330" height="80" as="geometry" />
        </mxCell>
        <mxCell id="V4ygMix9neK_rHeA2cn2-22" style="edgeStyle=orthogonalEdgeStyle;rounded=0;orthogonalLoop=1;jettySize=auto;html=1;exitX=1;exitY=0.5;exitDx=0;exitDy=0;entryX=0;entryY=0.5;entryDx=0;entryDy=0;" parent="1" source="V4ygMix9neK_rHeA2cn2-17" target="WIV3rkEMDpp98gtpgbOe-2" edge="1">
          <mxGeometry relative="1" as="geometry" />
        </mxCell>
        <mxCell id="V4ygMix9neK_rHeA2cn2-28" style="edgeStyle=orthogonalEdgeStyle;rounded=0;orthogonalLoop=1;jettySize=auto;html=1;exitX=0;exitY=0.5;exitDx=0;exitDy=0;entryX=0.75;entryY=1;entryDx=0;entryDy=0;" parent="1" source="V4ygMix9neK_rHeA2cn2-17" target="V4ygMix9neK_rHeA2cn2-29" edge="1">
          <mxGeometry relative="1" as="geometry">
            <mxPoint x="40" y="280" as="targetPoint" />
          </mxGeometry>
        </mxCell>
        <mxCell id="V4ygMix9neK_rHeA2cn2-17" value="from IH:&amp;nbsp;&lt;span&gt;&amp;nbsp;ssh net3_student11@localhost -p 31101 -L 31102:192.168.0.40:5555 -&lt;/span&gt;&lt;div&gt;NT&lt;/div&gt;" style="shape=process;whiteSpace=wrap;html=1;backgroundOutline=1;align=left;" parent="1" vertex="1">
          <mxGeometry x="258" y="298" width="250" height="60" as="geometry" />
        </mxCell>
        <mxCell id="V4ygMix9neK_rHeA2cn2-21" value="3333" style="whiteSpace=wrap;html=1;aspect=fixed;fillColor=#ffe6cc;strokeColor=#d79b00;" parent="1" vertex="1">
          <mxGeometry x="610" y="370" width="40" height="40" as="geometry" />
        </mxCell>
        <mxCell id="V4ygMix9neK_rHeA2cn2-33" style="edgeStyle=orthogonalEdgeStyle;rounded=0;orthogonalLoop=1;jettySize=auto;html=1;exitX=0.5;exitY=1;exitDx=0;exitDy=0;entryX=0;entryY=0.25;entryDx=0;entryDy=0;fontColor=#99FF99;" parent="1" source="V4ygMix9neK_rHeA2cn2-29" target="V4ygMix9neK_rHeA2cn2-32" edge="1">
          <mxGeometry relative="1" as="geometry" />
        </mxCell>
        <mxCell id="WIV3rkEMDpp98gtpgbOe-25" style="edgeStyle=orthogonalEdgeStyle;rounded=0;orthogonalLoop=1;jettySize=auto;html=1;exitX=0.25;exitY=1;exitDx=0;exitDy=0;entryX=0;entryY=0.25;entryDx=0;entryDy=0;" edge="1" parent="1" source="V4ygMix9neK_rHeA2cn2-29" target="WIV3rkEMDpp98gtpgbOe-23">
          <mxGeometry relative="1" as="geometry" />
        </mxCell>
        <mxCell id="V4ygMix9neK_rHeA2cn2-29" value="31102" style="whiteSpace=wrap;html=1;aspect=fixed;fillColor=#ffe6cc;strokeColor=#d79b00;" parent="1" vertex="1">
          <mxGeometry x="60" y="243" width="40" height="40" as="geometry" />
        </mxCell>
        <mxCell id="V4ygMix9neK_rHeA2cn2-34" style="edgeStyle=orthogonalEdgeStyle;rounded=0;orthogonalLoop=1;jettySize=auto;html=1;exitX=1;exitY=0.25;exitDx=0;exitDy=0;fontColor=#99FF99;" parent="1" source="V4ygMix9neK_rHeA2cn2-32" edge="1">
          <mxGeometry relative="1" as="geometry">
            <Array as="points">
              <mxPoint x="508" y="401" />
              <mxPoint x="508" y="640" />
              <mxPoint x="710" y="640" />
            </Array>
            <mxPoint x="710" y="590" as="targetPoint" />
          </mxGeometry>
        </mxCell>
        <mxCell id="V4ygMix9neK_rHeA2cn2-32" value="from IH:&amp;nbsp;ssh net3_student11@localhost -p 31102 -D 9050 -NT" style="shape=process;whiteSpace=wrap;html=1;backgroundOutline=1;align=left;" parent="1" vertex="1">
          <mxGeometry x="210" y="386" width="250" height="60" as="geometry" />
        </mxCell>
        <mxCell id="V4ygMix9neK_rHeA2cn2-36" value="7" style="ellipse;whiteSpace=wrap;html=1;aspect=fixed;fillColor=#ffff88;strokeColor=#36393d;" parent="1" vertex="1">
          <mxGeometry x="-300" y="80" width="30" height="30" as="geometry" />
        </mxCell>
        <mxCell id="V4ygMix9neK_rHeA2cn2-38" value="8" style="ellipse;whiteSpace=wrap;html=1;aspect=fixed;fillColor=#fff2cc;strokeColor=#d6b656;" parent="1" vertex="1">
          <mxGeometry x="-265" y="80" width="30" height="30" as="geometry" />
        </mxCell>
        <mxCell id="V4ygMix9neK_rHeA2cn2-39" value="9" style="ellipse;whiteSpace=wrap;html=1;aspect=fixed;fillColor=#e1d5e7;strokeColor=#9673a6;" parent="1" vertex="1">
          <mxGeometry x="-225" y="80" width="30" height="30" as="geometry" />
        </mxCell>
        <mxCell id="V4ygMix9neK_rHeA2cn2-40" value="6" style="ellipse;whiteSpace=wrap;html=1;aspect=fixed;fillColor=#d5e8d4;strokeColor=#82b366;" parent="1" vertex="1">
          <mxGeometry x="-335" y="80" width="30" height="30" as="geometry" />
        </mxCell>
        <mxCell id="V4ygMix9neK_rHeA2cn2-45" value="NET-SSH-02:&lt;br&gt;Internal:&amp;nbsp;192.168.0.50&lt;br&gt;Open Ports: 21, 80" style="rounded=0;whiteSpace=wrap;html=1;fillColor=#f8cecc;strokeColor=#b85450;" parent="1" vertex="1">
          <mxGeometry x="1176" y="331" width="190" height="60" as="geometry" />
        </mxCell>
        <mxCell id="V4ygMix9neK_rHeA2cn2-46" value="Hint from .50: &lt;i&gt;The flag for this machine is on another&lt;br&gt;open port. Also, all IP addresses are multiples of 10&lt;br&gt;for the last octet.&lt;br&gt;&lt;/i&gt;" style="text;html=1;align=left;verticalAlign=middle;resizable=0;points=[];autosize=1;strokeColor=none;fillColor=none;" parent="1" vertex="1">
          <mxGeometry x="1380" y="336" width="290" height="50" as="geometry" />
        </mxCell>
        <mxCell id="V4ygMix9neK_rHeA2cn2-48" value="" style="verticalLabelPosition=bottom;verticalAlign=top;html=1;shape=mxgraph.basic.star;strokeColor=#d79b00;fillColor=#ffcd28;gradientColor=#ffa500;" parent="1" vertex="1">
          <mxGeometry x="820" y="318" width="20" height="20.5" as="geometry" />
        </mxCell>
        <mxCell id="V4ygMix9neK_rHeA2cn2-50" value="" style="verticalLabelPosition=bottom;verticalAlign=top;html=1;shape=mxgraph.basic.star;strokeColor=#d79b00;fillColor=#ffcd28;gradientColor=#ffa500;" parent="1" vertex="1">
          <mxGeometry x="-370" y="159.5" width="20" height="20.5" as="geometry" />
        </mxCell>
        <mxCell id="V4ygMix9neK_rHeA2cn2-51" value="Possible Pivot" style="text;html=1;align=center;verticalAlign=middle;resizable=0;points=[];autosize=1;strokeColor=none;fillColor=none;fontColor=#000000;" parent="1" vertex="1">
          <mxGeometry x="-340" y="160" width="90" height="20" as="geometry" />
        </mxCell>
        <mxCell id="V4ygMix9neK_rHeA2cn2-52" value="" style="verticalLabelPosition=bottom;verticalAlign=top;html=1;shape=mxgraph.basic.x;fillColor=#a20025;fontColor=#ffffff;strokeColor=#6F0000;" parent="1" vertex="1">
          <mxGeometry x="-380" y="190" width="40" height="40" as="geometry" />
        </mxCell>
        <mxCell id="V4ygMix9neK_rHeA2cn2-53" value="Tear down tunnel" style="text;html=1;align=center;verticalAlign=middle;resizable=0;points=[];autosize=1;strokeColor=none;fillColor=none;fontColor=#000000;" parent="1" vertex="1">
          <mxGeometry x="-350" y="195" width="110" height="20" as="geometry" />
        </mxCell>
        <mxCell id="V4ygMix9neK_rHeA2cn2-56" value="10" style="ellipse;whiteSpace=wrap;html=1;aspect=fixed;fillColor=#dae8fc;strokeColor=#6c8ebf;gradientColor=#7ea6e0;" parent="1" vertex="1">
          <mxGeometry x="-185" y="80" width="30" height="30" as="geometry" />
        </mxCell>
        <mxCell id="WIV3rkEMDpp98gtpgbOe-1" value="3" style="ellipse;whiteSpace=wrap;html=1;aspect=fixed;fillColor=#d5e8d4;strokeColor=#82b366;" vertex="1" parent="1">
          <mxGeometry x="250" y="278" width="30" height="30" as="geometry" />
        </mxCell>
        <mxCell id="WIV3rkEMDpp98gtpgbOe-2" value="5555" style="whiteSpace=wrap;html=1;aspect=fixed;fillColor=#ffe6cc;strokeColor=#d79b00;" vertex="1" parent="1">
          <mxGeometry x="620" y="560" width="40" height="40" as="geometry" />
        </mxCell>
        <mxCell id="WIV3rkEMDpp98gtpgbOe-3" value="" style="verticalLabelPosition=bottom;verticalAlign=top;html=1;shape=mxgraph.basic.star;strokeColor=#d79b00;fillColor=#ffcd28;gradientColor=#ffa500;" vertex="1" parent="1">
          <mxGeometry x="820" y="520" width="20" height="20.5" as="geometry" />
        </mxCell>
        <mxCell id="WIV3rkEMDpp98gtpgbOe-4" value="&lt;div style=&quot;text-align: left&quot;&gt;&lt;font color=&quot;#000000&quot;&gt;use hint .40 from IH to&amp;nbsp;&lt;/font&gt;&lt;/div&gt;&lt;div style=&quot;text-align: left&quot;&gt;&lt;font color=&quot;#000000&quot;&gt;proxychains ./scan.sh&lt;/font&gt;&lt;/div&gt;&lt;div style=&quot;text-align: left&quot;&gt;&lt;font color=&quot;#000000&quot;&gt;(172.16.0.0, 1-254, 80)&lt;/font&gt;&lt;/div&gt;&lt;div style=&quot;text-align: left&quot;&gt;&lt;font color=&quot;#000000&quot;&gt;find 192.16.0.60&lt;/font&gt;&lt;/div&gt;" style="shape=step;perimeter=stepPerimeter;whiteSpace=wrap;html=1;fixedSize=1;align=center;fillColor=#f5f5f5;fontColor=#333333;strokeColor=#666666;" vertex="1" parent="1">
          <mxGeometry x="197.5" y="460.5" width="275" height="59.5" as="geometry" />
        </mxCell>
        <mxCell id="WIV3rkEMDpp98gtpgbOe-5" value="NET-SSH-06:&lt;br&gt;Internal:&amp;nbsp;172.16.0.60&lt;br&gt;Open Ports: 21, 23, 80" style="rounded=0;whiteSpace=wrap;html=1;fillColor=#f8cecc;strokeColor=#b85450;" vertex="1" parent="1">
          <mxGeometry x="1177.5" y="530.25" width="190" height="60" as="geometry" />
        </mxCell>
        <mxCell id="duze3X__lLn2EJtRwXXi-20" value="4" style="ellipse;whiteSpace=wrap;html=1;aspect=fixed;fillColor=#d5e8d4;strokeColor=#82b366;" parent="1" vertex="1">
          <mxGeometry x="210" y="370" width="30" height="30" as="geometry" />
        </mxCell>
        <mxCell id="duze3X__lLn2EJtRwXXi-22" value="7" style="ellipse;whiteSpace=wrap;html=1;aspect=fixed;fillColor=#fff2cc;strokeColor=#d6b656;" parent="1" vertex="1">
          <mxGeometry x="200" y="450" width="30" height="30" as="geometry" />
        </mxCell>
        <mxCell id="WIV3rkEMDpp98gtpgbOe-8" value="&lt;div&gt;Hex of Vlan&lt;span&gt;Tag Protocol ID in ethernet header -- 0x8100&lt;/span&gt;&lt;/div&gt;" style="text;html=1;align=left;verticalAlign=middle;resizable=0;points=[];autosize=1;strokeColor=none;fillColor=none;" vertex="1" parent="1">
          <mxGeometry x="205" y="594" width="310" height="20" as="geometry" />
        </mxCell>
        <mxCell id="WIV3rkEMDpp98gtpgbOe-11" value="5" style="ellipse;whiteSpace=wrap;html=1;aspect=fixed;fillColor=#d5e8d4;strokeColor=#82b366;" vertex="1" parent="1">
          <mxGeometry x="1030" y="570" width="30" height="30" as="geometry" />
        </mxCell>
        <mxCell id="WIV3rkEMDpp98gtpgbOe-14" value="6" style="ellipse;whiteSpace=wrap;html=1;aspect=fixed;fillColor=#ffff88;strokeColor=#36393d;" vertex="1" parent="1">
          <mxGeometry x="1100" y="505" width="30" height="30" as="geometry" />
        </mxCell>
        <mxCell id="WIV3rkEMDpp98gtpgbOe-16" value="&lt;div style=&quot;text-align: left&quot;&gt;&lt;span style=&quot;color: rgb(0 , 0 , 0)&quot;&gt;from IH:&lt;/span&gt;&lt;/div&gt;&lt;div style=&quot;text-align: left&quot;&gt;&lt;span style=&quot;color: rgb(0 , 0 , 0)&quot;&gt;proxychains wget -r 172.16.0.60&lt;/span&gt;&lt;br&gt;&lt;/div&gt;" style="shape=step;perimeter=stepPerimeter;whiteSpace=wrap;html=1;fixedSize=1;align=center;fillColor=#f5f5f5;fontColor=#333333;strokeColor=#666666;" vertex="1" parent="1">
          <mxGeometry x="200" y="540.5" width="275" height="39.5" as="geometry" />
        </mxCell>
        <mxCell id="V4ygMix9neK_rHeA2cn2-11" value="8" style="ellipse;whiteSpace=wrap;html=1;aspect=fixed;fillColor=#e1d5e7;strokeColor=#9673a6;" parent="1" vertex="1">
          <mxGeometry x="200" y="529" width="30" height="30" as="geometry" />
        </mxCell>
        <mxCell id="WIV3rkEMDpp98gtpgbOe-17" value="&lt;div style=&quot;text-align: left&quot;&gt;&lt;span style=&quot;color: rgb(0 , 0 , 0)&quot;&gt;from IH:&amp;nbsp;&lt;/span&gt;&lt;span style=&quot;color: rgb(0 , 0 , 0)&quot;&gt;proxychains ./scan.sh&lt;/span&gt;&lt;/div&gt;&lt;div style=&quot;text-align: left&quot;&gt;&lt;span style=&quot;color: rgb(0 , 0 , 0)&quot;&gt;(172.16.0.60, 21-23, 80)&lt;/span&gt;&lt;/div&gt;&lt;div style=&quot;text-align: left&quot;&gt;&lt;span style=&quot;color: rgb(0 , 0 , 0)&quot;&gt;proxychains wget -r ftp://172.16.0.60&lt;/span&gt;&lt;br&gt;&lt;/div&gt;&lt;div style=&quot;text-align: left&quot;&gt;&lt;span style=&quot;color: rgb(0 , 0 , 0)&quot;&gt;check hint&lt;/span&gt;&lt;/div&gt;" style="shape=step;perimeter=stepPerimeter;whiteSpace=wrap;html=1;fixedSize=1;align=center;fillColor=#f5f5f5;fontColor=#333333;strokeColor=#666666;" vertex="1" parent="1">
          <mxGeometry x="202.5" y="630.5" width="275" height="59.5" as="geometry" />
        </mxCell>
        <mxCell id="WIV3rkEMDpp98gtpgbOe-18" value="9" style="ellipse;whiteSpace=wrap;html=1;aspect=fixed;fillColor=#dae8fc;strokeColor=#6c8ebf;gradientColor=#7ea6e0;" vertex="1" parent="1">
          <mxGeometry x="202.5" y="619" width="30" height="30" as="geometry" />
        </mxCell>
        <mxCell id="WIV3rkEMDpp98gtpgbOe-19" value="Hint from .60: This machine is a possible pivot &lt;br&gt;to accessmore machines in the network but ssh &lt;br&gt;is not open to hosts outside this network" style="text;html=1;align=left;verticalAlign=middle;resizable=0;points=[];autosize=1;strokeColor=none;fillColor=none;" vertex="1" parent="1">
          <mxGeometry x="1380" y="540.5" width="270" height="50" as="geometry" />
        </mxCell>
        <mxCell id="WIV3rkEMDpp98gtpgbOe-21" value="" style="verticalLabelPosition=bottom;verticalAlign=top;html=1;shape=mxgraph.basic.x;fillColor=#a20025;fontColor=#ffffff;strokeColor=#6F0000;" vertex="1" parent="1">
          <mxGeometry x="432.5" y="370" width="40" height="40" as="geometry" />
        </mxCell>
        <mxCell id="WIV3rkEMDpp98gtpgbOe-22" value="10" style="ellipse;whiteSpace=wrap;html=1;aspect=fixed;fillColor=#dae8fc;strokeColor=#6c8ebf;gradientColor=#7ea6e0;" vertex="1" parent="1">
          <mxGeometry x="420" y="356" width="30" height="30" as="geometry" />
        </mxCell>
        <mxCell id="WIV3rkEMDpp98gtpgbOe-26" style="edgeStyle=orthogonalEdgeStyle;rounded=0;orthogonalLoop=1;jettySize=auto;html=1;exitX=1;exitY=0.25;exitDx=0;exitDy=0;entryX=0.25;entryY=1;entryDx=0;entryDy=0;" edge="1" parent="1" source="WIV3rkEMDpp98gtpgbOe-23" target="WIV3rkEMDpp98gtpgbOe-27">
          <mxGeometry relative="1" as="geometry">
            <mxPoint x="1210" y="620" as="targetPoint" />
          </mxGeometry>
        </mxCell>
        <mxCell id="WIV3rkEMDpp98gtpgbOe-28" style="edgeStyle=orthogonalEdgeStyle;rounded=0;orthogonalLoop=1;jettySize=auto;html=1;exitX=0;exitY=0.5;exitDx=0;exitDy=0;" edge="1" parent="1" source="WIV3rkEMDpp98gtpgbOe-23" target="WIV3rkEMDpp98gtpgbOe-24">
          <mxGeometry relative="1" as="geometry" />
        </mxCell>
        <mxCell id="WIV3rkEMDpp98gtpgbOe-23" value="&lt;div&gt;from IH: ssh net3_student11@localhost -p 31102 -L 31103:172.16.0.60:23&lt;/div&gt;&lt;div&gt;-NT&lt;/div&gt;" style="shape=process;whiteSpace=wrap;html=1;backgroundOutline=1;align=left;" vertex="1" parent="1">
          <mxGeometry x="220" y="720" width="250" height="60" as="geometry" />
        </mxCell>
        <mxCell id="WIV3rkEMDpp98gtpgbOe-24" value="31103" style="whiteSpace=wrap;html=1;aspect=fixed;fillColor=#ffe6cc;strokeColor=#d79b00;" vertex="1" parent="1">
          <mxGeometry x="-10" y="250" width="40" height="40" as="geometry" />
        </mxCell>
        <mxCell id="WIV3rkEMDpp98gtpgbOe-27" value="23" style="whiteSpace=wrap;html=1;aspect=fixed;fillColor=#ffe6cc;strokeColor=#d79b00;" vertex="1" parent="1">
          <mxGeometry x="1160" y="570" width="40" height="40" as="geometry" />
        </mxCell>
        <mxCell id="WIV3rkEMDpp98gtpgbOe-29" value="10" style="ellipse;whiteSpace=wrap;html=1;aspect=fixed;fillColor=#dae8fc;strokeColor=#6c8ebf;gradientColor=#7ea6e0;" vertex="1" parent="1">
          <mxGeometry x="210" y="710" width="30" height="30" as="geometry" />
        </mxCell>
        <mxCell id="WIV3rkEMDpp98gtpgbOe-30" value="from IH: telnet localhost 31103" style="shape=process;whiteSpace=wrap;html=1;backgroundOutline=1;align=left;" vertex="1" parent="1">
          <mxGeometry x="220" y="804" width="250" height="60" as="geometry" />
        </mxCell>
        <mxCell id="WIV3rkEMDpp98gtpgbOe-31" value="11" style="ellipse;whiteSpace=wrap;html=1;aspect=fixed;fillColor=#dae8fc;strokeColor=#6c8ebf;gradientColor=#7ea6e0;" vertex="1" parent="1">
          <mxGeometry x="210" y="790" width="30" height="30" as="geometry" />
        </mxCell>
      </root>
    </mxGraphModel>
  </diagram>
</mxfile>
